<svg width="23" height="22" viewBox="0 0 23 22" fill="none" xmlns="http://www.w3.org/2000/svg">
<g clip-path="url(#clip0_29_1424)">
<path fill-rule="evenodd" clip-rule="evenodd" d="M5.63333 0H17.3667C20.2017 0 22.5 2.29827 22.5 5.13333V16.8667C22.5 19.7017 20.2017 22 17.3667 22H15.0352V14.2085H17.1732L17.3667 11.5633H14.9794C14.9794 11.5633 14.9848 10.3866 14.9794 10.0449C14.9794 9.23716 15.8004 9.25383 15.905 9.25595C15.9087 9.25603 15.9116 9.25608 15.9134 9.25608C16.0469 9.25608 16.2204 9.25621 16.4018 9.25634C16.7901 9.25663 17.2143 9.25693 17.357 9.25608V6.6001H17.3557H14.8651C13.3872 6.6001 11.7432 7.21439 11.7432 9.33154C11.748 9.81808 11.7464 10.2911 11.7448 10.7849C11.744 11.0397 11.7432 11.3002 11.7432 11.5709H10.0333V14.2596H11.7961V22H5.63333C2.79827 22 0.5 19.7017 0.5 16.8667V5.13333C0.5 2.29827 2.79827 0 5.63333 0Z" fill="#4C5378"/>
</g>
<defs>
<clipPath id="clip0_29_1424">
<rect width="22" height="22" fill="white" transform="translate(0.5)"/>
</clipPath>
</defs>
</svg>
