<svg width="23" height="22" viewBox="0 0 23 22" fill="none" xmlns="http://www.w3.org/2000/svg">
<g clip-path="url(#clip0_29_1421)">
<path fill-rule="evenodd" clip-rule="evenodd" d="M11.5 0C8.5124 0 8.1384 0.0124666 6.96506 0.066C5.79394 0.119534 4.99386 0.3058 4.29426 0.577866C3.56094 0.8536 2.8958 1.28626 2.3458 1.84654C1.78642 2.3959 1.3535 3.06056 1.07713 3.79426C0.806534 4.49386 0.619534 5.29466 0.566 6.4658C0.5132 7.6384 0.5 8.01166 0.5 11C0.5 13.9884 0.512467 14.3616 0.566 15.535C0.619534 16.706 0.8058 17.5062 1.07787 18.2058C1.3536 18.939 1.78626 19.6042 2.34654 20.1542C2.89591 20.7136 3.56058 21.1465 4.29426 21.4228C4.99386 21.6942 5.79394 21.8804 6.96506 21.934C8.1384 21.9876 8.5124 22 11.5 22C14.4876 22 14.8616 21.9876 16.035 21.934C17.206 21.8804 18.0062 21.6942 18.7058 21.4222C19.439 21.1464 20.1042 20.7138 20.6542 20.1534C21.2136 19.6041 21.6465 18.9395 21.9228 18.2058C22.1942 17.5062 22.3804 16.706 22.434 15.535C22.4876 14.3616 22.5 13.9876 22.5 11C22.5 8.0124 22.4876 7.6384 22.434 6.46506C22.3804 5.29394 22.1942 4.49386 21.9222 3.79426C21.6459 3.06025 21.213 2.3953 20.6534 1.8458C20.1041 1.28642 19.4395 0.853498 18.7058 0.577134C18.0062 0.306534 17.2054 0.119534 16.0342 0.066C14.8616 0.0132 14.4884 0 11.5 0ZM11.5 1.9822C14.437 1.9822 14.7854 1.9932 15.9454 2.046C17.0176 2.09514 17.5998 2.27334 17.9878 2.42514C18.5012 2.62386 18.8678 2.86294 19.2528 3.2472C19.6378 3.6322 19.8762 3.99886 20.0748 4.5122C20.226 4.90014 20.4048 5.4824 20.454 6.55454C20.5068 7.71466 20.5178 8.063 20.5178 11C20.5178 13.937 20.5068 14.2854 20.454 15.4454C20.4048 16.5176 20.2266 17.0998 20.0748 17.4878C19.8988 17.9655 19.6179 18.3978 19.2528 18.7528C18.8978 19.118 18.4657 19.3988 17.9878 19.5748C17.5998 19.726 17.0176 19.9048 15.9454 19.954C14.7854 20.0068 14.4378 20.0178 11.5 20.0178C8.56226 20.0178 8.21466 20.0068 7.05454 19.954C5.9824 19.9048 5.40014 19.7266 5.0122 19.5748C4.53439 19.3988 4.10214 19.1179 3.7472 18.7528C3.38214 18.3978 3.10123 17.9655 2.92514 17.4878C2.77406 17.0998 2.59514 16.5176 2.546 15.4454C2.4932 14.2854 2.4822 13.937 2.4822 11C2.4822 8.063 2.4932 7.71466 2.546 6.55454C2.59514 5.4824 2.77334 4.90014 2.92514 4.5122C3.12386 3.99886 3.36294 3.6322 3.7472 3.2472C4.10209 2.88203 4.53437 2.60112 5.0122 2.42514C5.40014 2.27406 5.9824 2.09514 7.05454 2.046C8.21466 1.9932 8.563 1.9822 11.5 1.9822Z" fill="#4C5378"/>
<path fill-rule="evenodd" clip-rule="evenodd" d="M11.4987 14.6703C11.0167 14.6703 10.5394 14.5753 10.0942 14.3909C9.64885 14.2064 9.24422 13.9361 8.9034 13.5952C8.56258 13.2544 8.29223 12.8498 8.10778 12.4046C7.92332 11.9592 7.82839 11.4819 7.82839 10.9999C7.82839 10.5179 7.92332 10.0407 8.10778 9.59532C8.29223 9.14999 8.56258 8.74544 8.9034 8.4046C9.24422 8.06377 9.64885 7.79342 10.0942 7.60897C10.5394 7.42452 11.0167 7.32957 11.4987 7.32957C12.4721 7.32957 13.4057 7.71627 14.094 8.4046C14.7824 9.09287 15.169 10.0265 15.169 10.9999C15.169 11.9734 14.7824 12.9068 14.094 13.5952C13.4057 14.2836 12.4721 14.6703 11.4987 14.6703ZM11.4987 5.34591C9.99916 5.34591 8.56107 5.94159 7.50074 7.00193C6.44041 8.06226 5.84473 9.50038 5.84473 10.9999C5.84473 12.4995 6.44041 13.9375 7.50074 14.9978C8.56107 16.0582 9.99916 16.6539 11.4987 16.6539C12.9982 16.6539 14.4364 16.0582 15.4967 14.9978C16.5571 13.9375 17.1526 12.4995 17.1526 10.9999C17.1526 9.50038 16.5571 8.06226 15.4967 7.00193C14.4364 5.94159 12.9982 5.34591 11.4987 5.34591ZM18.7975 5.24324C18.7975 5.59771 18.6567 5.93765 18.4062 6.18829C18.1555 6.43893 17.8156 6.57974 17.461 6.57974C17.1066 6.57974 16.7667 6.43893 16.516 6.18829C16.2654 5.93765 16.1245 5.59771 16.1245 5.24324C16.1245 4.88878 16.2654 4.54883 16.516 4.29819C16.7667 4.04756 17.1066 3.90674 17.461 3.90674C17.8156 3.90674 18.1555 4.04756 18.4062 4.29819C18.6567 4.54883 18.7975 4.88878 18.7975 5.24324Z" fill="#4C5378"/>
</g>
<defs>
<clipPath id="clip0_29_1421">
<rect width="22" height="22" fill="white" transform="translate(0.5)"/>
</clipPath>
</defs>
</svg>
