<svg width="23" height="22" viewBox="0 0 23 22" fill="none" xmlns="http://www.w3.org/2000/svg">
<path d="M22.5 1.61765V20.3824C22.5 20.8114 22.3296 21.2228 22.0261 21.5261C21.7228 21.8296 21.3114 22 20.8824 22H2.11765C1.68862 22 1.27717 21.8296 0.973798 21.5261C0.67043 21.2228 0.5 20.8114 0.5 20.3824V1.61765C0.5 1.18862 0.67043 0.777166 0.973798 0.473798C1.27717 0.17043 1.68862 0 2.11765 0H20.8824C21.3114 0 21.7228 0.17043 22.0261 0.473798C22.3296 0.777166 22.5 1.18862 22.5 1.61765ZM6.97059 8.41176H3.7353V18.7647H6.97059V8.41176ZM7.26176 4.85294C7.26347 4.60822 7.21695 4.36556 7.12487 4.13881C7.0328 3.91206 6.89695 3.70567 6.72512 3.53143C6.55328 3.35718 6.34879 3.21848 6.12333 3.12327C5.8979 3.02804 5.6559 2.97816 5.41118 2.97647H5.35294C4.85527 2.97647 4.37798 3.17417 4.02607 3.52607C3.67417 3.87798 3.47647 4.35527 3.47647 4.85294C3.47647 5.35061 3.67417 5.8279 4.02607 6.17981C4.37798 6.53171 4.85527 6.72941 5.35294 6.72941C5.59768 6.73543 5.84121 6.69317 6.06962 6.60505C6.29801 6.51691 6.50682 6.38464 6.68408 6.21579C6.86135 6.04693 7.0036 5.84481 7.10273 5.62096C7.20185 5.39711 7.25589 5.15592 7.26176 4.91118V4.85294ZM19.2647 12.4753C19.2647 9.36294 17.2847 8.15294 15.3176 8.15294C14.6736 8.12069 14.0323 8.25787 13.4579 8.55079C12.8833 8.84372 12.3957 9.28214 12.0435 9.82235H11.9529V8.41176H8.91176V18.7647H12.1471V13.2582C12.1003 12.6942 12.2779 12.1347 12.6414 11.7009C13.0049 11.2672 13.5249 10.9944 14.0882 10.9418H14.2111C15.24 10.9418 16.0035 11.5888 16.0035 13.2194V18.7647H19.2389L19.2647 12.4753Z" fill="#4C5378"/>
</svg>
