<svg width="100" height="100" viewBox="0 0 100 100" fill="none" xmlns="http://www.w3.org/2000/svg">
<path d="M69.4509 30.6498C69.4509 35.6498 67.3509 40.3598 63.5509 43.9098C62.9009 44.5098 62.8709 45.5298 63.4709 46.1798C63.7909 46.5198 64.2109 46.6898 64.6409 46.6898C65.0309 46.6898 65.4209 46.5498 65.7309 46.2598C70.2009 42.0998 72.6509 36.5598 72.6509 30.6598C72.6509 24.7598 70.1909 19.2198 65.7309 15.0498C65.0809 14.4498 64.0709 14.4798 63.4609 15.1298C62.8609 15.7798 62.8909 16.7898 63.5409 17.3998C67.3509 20.9498 69.4409 25.6598 69.4409 30.6598L69.4509 30.6498Z" fill="white"/>
<path d="M57.1981 39.0301C56.5181 39.6001 56.4181 40.6101 56.9881 41.2901C57.3081 41.6701 57.7581 41.8701 58.2281 41.8701C58.5881 41.8701 58.9481 41.7501 59.2481 41.5001C62.7281 38.6201 64.6381 34.7601 64.6381 30.6401C64.6381 26.5201 62.7281 22.6601 59.2481 19.7801C58.5681 19.2101 57.5581 19.3101 56.9881 19.9901C56.4181 20.6701 56.5181 21.6801 57.1981 22.2501C59.9281 24.5101 61.4281 27.4901 61.4281 30.6401C61.4281 33.7901 59.9281 36.7701 57.1981 39.0301Z" fill="white"/>
<path d="M32.5708 46.6802C33.0008 46.6802 33.4308 46.5102 33.7408 46.1702C34.3408 45.5202 34.3108 44.5102 33.6608 43.9002C29.8508 40.3502 27.7608 35.6402 27.7608 30.6402C27.7608 25.6402 29.8608 20.9302 33.6608 17.3802C34.3108 16.7802 34.3408 15.7602 33.7408 15.1102C33.1408 14.4602 32.1208 14.4302 31.4708 15.0302C27.0008 19.1902 24.5508 24.7302 24.5508 30.6302C24.5508 36.5302 27.0108 42.0702 31.4708 46.2402C31.7808 46.5302 32.1708 46.6702 32.5608 46.6702L32.5708 46.6802Z" fill="white"/>
<path d="M37.9603 41.4999C38.2603 41.7499 38.6203 41.8699 38.9803 41.8699C39.4403 41.8699 39.9003 41.6699 40.2203 41.2899C40.7903 40.6099 40.6903 39.5999 40.0103 39.0299C37.2803 36.7699 35.7803 33.7899 35.7803 30.6499C35.7803 27.5099 37.2803 24.5199 40.0103 22.2599C40.6903 21.6899 40.7903 20.6799 40.2203 19.9999C39.6603 19.3199 38.6403 19.2199 37.9603 19.7899C34.4803 22.6699 32.5703 26.5299 32.5703 30.6499C32.5703 34.7699 34.4903 38.6199 37.9603 41.4999Z" fill="white"/>
<path d="M68.3183 80.16C67.4083 79.25 66.1983 78.75 64.9183 78.75H64.1983L51.7383 41.36C51.5183 40.71 50.9083 40.26 50.2183 40.26V36.83C52.9783 36.11 55.0283 33.62 55.0283 30.64C55.0283 27.1 52.1483 24.23 48.6183 24.23C45.0883 24.23 42.2083 27.11 42.2083 30.64C42.2083 33.62 44.2583 36.11 47.0183 36.83V40.26C46.3283 40.26 45.7183 40.7 45.4983 41.36L33.0383 78.75H32.3183C31.0383 78.75 29.8283 79.25 28.9183 80.16L26.6483 82.43C26.0183 83.06 26.0183 84.07 26.6483 84.7C27.2783 85.33 28.2883 85.33 28.9183 84.7L31.1883 82.43C31.4883 82.13 31.8983 81.96 32.3183 81.96H63.0583H64.9283C65.3583 81.96 65.7583 82.13 66.0583 82.43L68.3283 84.7C68.6383 85.01 69.0483 85.17 69.4583 85.17C69.8683 85.17 70.2783 85.01 70.5883 84.7C71.2183 84.07 71.2183 83.06 70.5883 82.43L68.3183 80.16ZM45.3983 30.65C45.3983 28.88 46.8383 27.44 48.6083 27.44C50.3783 27.44 51.8183 28.88 51.8183 30.65C51.8183 32.42 50.3783 33.86 48.6083 33.86C46.8383 33.86 45.3983 32.42 45.3983 30.65ZM48.1583 43.48H49.0583L52.7983 54.7H47.0083C46.1183 54.7 45.4083 55.42 45.4083 56.3C45.4083 57.18 46.1283 57.9 47.0083 57.9H53.8683L53.9983 58.29C53.9983 58.29 53.9583 58.31 53.9383 58.32L48.3783 63.42L43.2283 58.27L48.1583 43.47V43.48ZM37.8283 78.76L44.9783 70.97C45.5783 70.32 45.5383 69.3 44.8783 68.7C44.2283 68.1 43.2083 68.14 42.6083 68.8L38.0583 73.75L42.0783 61.68L59.1583 78.76H37.8183H37.8283ZM50.6483 65.7L55.1083 61.62L59.3783 74.43L50.6583 65.71L50.6483 65.7Z" fill="white"/>
</svg>
