<svg width="100" height="100" viewBox="0 0 100 100" fill="none" xmlns="http://www.w3.org/2000/svg">
<path d="M39.6084 83.4801C41.3813 83.4801 42.8184 82.0429 42.8184 80.2701C42.8184 78.4972 41.3813 77.0601 39.6084 77.0601C37.8356 77.0601 36.3984 78.4972 36.3984 80.2701C36.3984 82.0429 37.8356 83.4801 39.6084 83.4801Z" fill="white"/>
<path d="M68.4717 83.4801C70.2446 83.4801 71.6817 82.0429 71.6817 80.2701C71.6817 78.4972 70.2446 77.0601 68.4717 77.0601C66.6989 77.0601 65.2617 78.4972 65.2617 80.2701C65.2617 82.0429 66.6989 83.4801 68.4717 83.4801Z" fill="white"/>
<path d="M84.1192 31.1202C83.8192 30.7702 83.3692 30.5602 82.8992 30.5602H34.7992C33.9092 30.5602 33.1992 31.2802 33.1992 32.1602C33.1992 33.0402 33.9192 33.7602 34.7992 33.7602H81.0392L77.1192 59.8902C76.8792 61.4702 75.5492 62.6202 73.9492 62.6202H34.5392L27.2292 21.6902C26.8192 19.3902 24.8292 17.7202 22.4892 17.7202H18.7592C16.1092 17.7202 13.9492 19.8802 13.9492 22.5302C13.9492 23.4202 14.6692 24.1302 15.5492 24.1302C16.4292 24.1302 17.1492 23.4102 17.1492 22.5302C17.1492 21.6502 17.8692 20.9302 18.7492 20.9302H22.4792C23.2592 20.9302 23.9192 21.4902 24.0592 22.2502L31.4392 63.5902C29.6092 64.7202 28.3692 66.7302 28.3692 69.0402C28.3692 72.5802 31.2492 75.4502 34.7792 75.4502H76.4692C77.3592 75.4502 78.0692 74.7302 78.0692 73.8502C78.0692 72.9702 77.3492 72.2502 76.4692 72.2502H34.7992C33.0292 72.2502 31.5892 70.8102 31.5892 69.0402C31.5892 67.2702 33.0292 65.8302 34.7992 65.8302H73.9492C77.1492 65.8302 79.8192 63.5302 80.2892 60.3702L84.4892 32.4002C84.5592 31.9402 84.4192 31.4702 84.1192 31.1202Z" fill="white"/>
<path d="M38.0102 51.4102C37.1202 51.4102 36.4102 52.1302 36.4102 53.0102C36.4102 53.8902 37.1302 54.6102 38.0102 54.6102H44.4202V57.8202C44.4202 58.7102 45.1402 59.4202 46.0202 59.4202C46.9002 59.4202 47.6202 58.7002 47.6202 57.8202V54.6102H54.0302V57.8202C54.0302 58.7102 54.7502 59.4202 55.6302 59.4202C56.5102 59.4202 57.2302 58.7002 57.2302 57.8202V54.6102H63.6402V57.8202C63.6402 58.7102 64.3602 59.4202 65.2402 59.4202C66.1202 59.4202 66.8402 58.7002 66.8402 57.8202V54.6102H73.2502C74.1402 54.6102 74.8502 53.8902 74.8502 53.0102C74.8502 52.1302 74.1302 51.4102 73.2502 51.4102H66.8402V45.0002H73.2502C74.1402 45.0002 74.8502 44.2802 74.8502 43.4002C74.8502 42.5202 74.1302 41.8002 73.2502 41.8002H66.8402V38.5902C66.8402 37.7002 66.1202 36.9902 65.2402 36.9902C64.3602 36.9902 63.6402 37.7102 63.6402 38.5902V41.8002H57.2302V38.5902C57.2302 37.7002 56.5102 36.9902 55.6302 36.9902C54.7502 36.9902 54.0302 37.7102 54.0302 38.5902V41.8002H47.6202V38.5902C47.6202 37.7002 46.9002 36.9902 46.0202 36.9902C45.1402 36.9902 44.4202 37.7102 44.4202 38.5902V41.8002H38.0102C37.1202 41.8002 36.4102 42.5202 36.4102 43.4002C36.4102 44.2802 37.1302 45.0002 38.0102 45.0002H44.4202V51.4102H38.0102ZM63.6702 45.0002V51.4102H57.2602V45.0002H63.6702ZM47.6302 45.0002H54.0402V51.4102H47.6302V45.0002Z" fill="white"/>
</svg>
