<svg width="100" height="100" viewBox="0 0 100 100" fill="none" xmlns="http://www.w3.org/2000/svg">
<path d="M54.4086 31.8299C55.2986 31.8299 56.0086 31.1099 56.0086 30.2299C56.0086 29.3499 55.2886 28.6299 54.4086 28.6299C53.5286 28.6299 52.8086 29.3499 52.8086 30.2299C52.8086 31.1099 53.5286 31.8299 54.4086 31.8299Z" fill="white"/>
<path d="M35.1703 31.8299C36.0603 31.8299 36.7703 31.1099 36.7703 30.2299C36.7703 29.3499 36.0503 28.6299 35.1703 28.6299C34.2903 28.6299 33.5703 29.3499 33.5703 30.2299C33.5703 31.1099 34.2903 31.8299 35.1703 31.8299Z" fill="white"/>
<path d="M49.6 38.24C50.49 38.24 51.2 37.52 51.2 36.64C51.2 35.76 50.48 35.04 49.6 35.04C48.72 35.04 48 35.76 48 36.64C48 37.52 48.72 38.24 49.6 38.24Z" fill="white"/>
<path d="M59.2289 38.24C60.1189 38.24 60.8289 37.52 60.8289 36.64C60.8289 35.76 60.1089 35.04 59.2289 35.04C58.3489 35.04 57.6289 35.76 57.6289 36.64C57.6289 37.52 58.3489 38.24 59.2289 38.24Z" fill="white"/>
<path d="M64.0414 31.8299C64.9314 31.8299 65.6414 31.1099 65.6414 30.2299C65.6414 29.3499 64.9214 28.6299 64.0414 28.6299C63.1614 28.6299 62.4414 29.3499 62.4414 30.2299C62.4414 31.1099 63.1614 31.8299 64.0414 31.8299Z" fill="white"/>
<path d="M68.85 38.24C69.74 38.24 70.45 37.52 70.45 36.64C70.45 35.76 69.73 35.04 68.85 35.04C67.97 35.04 67.25 35.76 67.25 36.64C67.25 37.52 67.97 38.24 68.85 38.24Z" fill="white"/>
<path d="M30.3617 38.24C31.2517 38.24 31.9617 37.52 31.9617 36.64C31.9617 35.76 31.2417 35.04 30.3617 35.04C29.4817 35.04 28.7617 35.76 28.7617 36.64C28.7617 37.52 29.4817 38.24 30.3617 38.24Z" fill="white"/>
<path d="M44.7914 31.8299C45.6814 31.8299 46.3914 31.1099 46.3914 30.2299C46.3914 29.3499 45.6714 28.6299 44.7914 28.6299C43.9114 28.6299 43.1914 29.3499 43.1914 30.2299C43.1914 31.1099 43.9114 31.8299 44.7914 31.8299Z" fill="white"/>
<path d="M39.9789 38.24C40.8689 38.24 41.5789 37.52 41.5789 36.64C41.5789 35.76 40.8589 35.04 39.9789 35.04C39.0989 35.04 38.3789 35.76 38.3789 36.64C38.3789 37.52 39.0989 38.24 39.9789 38.24Z" fill="white"/>
<path d="M22.3412 46.2601H76.8613C79.5113 46.2601 81.6712 44.1001 81.6712 41.4501V38.2401C81.6712 26.3601 67.8813 17.3901 49.6012 17.3901C31.3212 17.3901 17.5312 26.3601 17.5312 38.2401V41.4501C17.5312 44.1001 19.6912 46.2601 22.3412 46.2601ZM20.7412 38.2401C20.7412 28.3501 33.4212 20.6001 49.6012 20.6001C65.7812 20.6001 78.4615 28.3501 78.4615 38.2401V41.4501C78.4615 42.3301 77.7413 43.0501 76.8613 43.0501H22.3412C21.4612 43.0501 20.7412 42.3301 20.7412 41.4501V38.2401Z" fill="white"/>
<path d="M19.1391 52.68H51.7591C53.0291 52.68 54.2691 53.19 55.1591 54.09L58.3691 57.3C59.9291 58.86 61.9891 59.64 64.0391 59.64C66.0891 59.64 68.1491 58.86 69.7091 57.3L72.9191 54.09C73.8191 53.19 75.0591 52.68 76.3191 52.68H80.0791C80.9691 52.68 81.6791 51.96 81.6791 51.08C81.6791 50.2 80.9591 49.48 80.0791 49.48H76.3191C74.1791 49.48 72.1691 50.31 70.6491 51.83L67.4391 55.04C65.5591 56.91 62.5091 56.91 60.6391 55.04L57.4291 51.83C55.9191 50.32 53.8991 49.48 51.7591 49.48H19.1391C18.2491 49.48 17.5391 50.2 17.5391 51.08C17.5391 51.96 18.2591 52.68 19.1391 52.68Z" fill="white"/>
<path d="M76.8613 68.71H22.3412C19.6912 68.71 17.5312 70.87 17.5312 73.52V76.73C17.5312 81.15 21.1313 84.75 25.5513 84.75H73.6614C78.0814 84.75 81.6814 81.15 81.6814 76.73V73.52C81.6814 70.87 79.5213 68.71 76.8713 68.71H76.8613ZM78.4615 76.73C78.4615 79.38 76.3013 81.54 73.6513 81.54H25.5513C22.9013 81.54 20.7412 79.38 20.7412 76.73V73.52C20.7412 72.64 21.4612 71.92 22.3412 71.92H76.8613C77.7413 71.92 78.4615 72.64 78.4615 73.52V76.73Z" fill="white"/>
<path d="M80.0681 55.8799H76.8581C75.9681 55.8799 75.2581 56.5999 75.2581 57.4799C75.2581 58.3599 75.9781 59.0799 76.8581 59.0799H80.0681C80.9481 59.0799 81.6681 59.7999 81.6681 60.6799C81.6681 61.5599 80.9481 62.2799 80.0681 62.2799H19.1381C18.2581 62.2799 17.5381 61.5599 17.5381 60.6799C17.5381 59.7999 18.2581 59.0799 19.1381 59.0799H51.2081C52.0981 59.0799 52.8081 58.3599 52.8081 57.4799C52.8081 56.5999 52.0881 55.8799 51.2081 55.8799H19.1381C16.4881 55.8799 14.3281 58.0399 14.3281 60.6899C14.3281 63.3399 16.4881 65.4999 19.1381 65.4999H80.0781C82.7281 65.4999 84.8881 63.3399 84.8881 60.6899C84.8881 58.0399 82.7281 55.8799 80.0781 55.8799H80.0681Z" fill="white"/>
</svg>
