<svg width="100" height="100" viewBox="0 0 100 100" fill="none" xmlns="http://www.w3.org/2000/svg">
<path d="M21.8398 60.1899C21.8398 62.2699 23.1798 64.0299 25.0398 64.6899V71.3799C25.0398 72.2599 25.7598 72.9799 26.6398 72.9799C27.5198 72.9799 28.2398 72.2599 28.2398 71.3799V64.9899H41.0198C41.8998 64.9899 42.6198 64.2699 42.6198 63.3899C42.6198 62.5099 41.8998 61.7899 41.0198 61.7899H26.6398C25.7598 61.7899 25.0398 61.0699 25.0398 60.1899C25.0398 59.3099 25.7598 58.5899 26.6398 58.5899H36.2298C37.1098 58.5899 37.8298 57.8699 37.8298 56.9899C37.8298 56.1099 37.1098 55.3899 36.2298 55.3899H28.2398V45.7999H34.6298C35.5098 45.7999 36.2298 45.0799 36.2298 44.1999C36.2298 43.3199 35.5098 42.5999 34.6298 42.5999H26.6398C25.7598 42.5999 25.0398 41.8799 25.0398 40.9999C25.0398 40.1199 25.7598 39.3999 26.6398 39.3999H41.0198C41.8998 39.3999 42.6198 38.6799 42.6198 37.7999C42.6198 36.9199 41.8998 36.1999 41.0198 36.1999H28.2398V23.4199C28.2398 22.5399 27.5198 21.8199 26.6398 21.8199C25.7598 21.8199 25.0398 21.0999 25.0398 20.2199C25.0398 19.3399 25.7598 18.6199 26.6398 18.6199H74.5698C75.4498 18.6199 76.1698 19.3399 76.1698 20.2199C76.1698 21.0999 75.4498 21.8199 74.5698 21.8199H33.0298C32.1498 21.8199 31.4298 22.5399 31.4298 23.4199C31.4298 24.2999 32.1498 25.0199 33.0298 25.0199H74.5698C77.2098 25.0199 79.3598 22.8699 79.3598 20.2299C79.3598 17.5899 77.2098 15.4399 74.5698 15.4399H26.6398C23.9998 15.4399 21.8498 17.5899 21.8498 20.2299C21.8498 22.3099 23.1898 24.0899 25.0498 24.7499V36.4999C23.1898 37.1599 21.8498 38.9199 21.8498 40.9999C21.8498 43.0799 23.1898 44.8399 25.0498 45.4999V55.6799C23.1898 56.3399 21.8498 58.0999 21.8498 60.1799L21.8398 60.1899Z" fill="white"/>
<path d="M49.3094 40.0803C48.6194 41.0203 42.6094 49.3503 42.6094 54.1003C42.6094 58.3503 46.1894 61.8003 50.5994 61.8003C55.0094 61.8003 58.5894 58.3503 58.5894 54.1003C58.5894 49.3603 52.5794 41.0203 51.8894 40.0803C51.2894 39.2603 49.9094 39.2603 49.3094 40.0803ZM55.3894 54.1003C55.3894 56.5803 53.2394 58.6003 50.5994 58.6003C47.9594 58.6003 45.8094 56.5803 45.8094 54.1003C45.8094 51.7803 48.3794 47.1603 50.5994 43.8203C52.8194 47.1603 55.3894 51.7803 55.3894 54.1003Z" fill="white"/>
<path d="M79.3616 41.02C79.3616 38.94 78.0216 37.18 76.1616 36.52V29.83C76.1616 28.95 75.4516 28.23 74.5616 28.23C73.6716 28.23 72.9616 28.95 72.9616 29.83V36.22H60.1816C59.3016 36.22 58.5816 36.94 58.5816 37.82C58.5816 38.7 59.3016 39.42 60.1816 39.42H74.5616C75.4416 39.42 76.1616 40.14 76.1616 41.02C76.1616 41.9 75.4416 42.62 74.5616 42.62H68.1716C67.2916 42.62 66.5716 43.34 66.5716 44.22C66.5716 45.1 67.2816 45.82 68.1716 45.82H72.9616V55.41H68.1716C67.2916 55.41 66.5716 56.13 66.5716 57.01C66.5716 57.89 67.2816 58.61 68.1716 58.61H74.5616C75.4416 58.61 76.1616 59.33 76.1616 60.21C76.1616 61.09 75.4416 61.81 74.5616 61.81H63.3816C62.5016 61.81 61.7816 62.53 61.7816 63.41C61.7816 64.29 62.4916 65.01 63.3816 65.01H72.9716V77.79C72.9716 78.67 73.6816 79.39 74.5716 79.39C75.4616 79.39 76.1716 80.11 76.1716 80.99C76.1716 81.87 75.4516 82.59 74.5716 82.59H26.6416C25.7616 82.59 25.0416 81.87 25.0416 80.99C25.0416 80.11 25.7616 79.39 26.6416 79.39H68.1816C69.0616 79.39 69.7816 78.67 69.7816 77.79C69.7816 76.91 69.0716 76.19 68.1816 76.19H26.6416C24.0016 76.19 21.8516 78.34 21.8516 80.98C21.8516 83.62 24.0016 85.77 26.6416 85.77H74.5716C77.2116 85.77 79.3616 83.62 79.3616 80.98C79.3616 78.9 78.0216 77.12 76.1616 76.46V64.71C78.0216 64.05 79.3616 62.29 79.3616 60.21C79.3616 58.13 78.0216 56.37 76.1616 55.71V45.53C78.0216 44.87 79.3616 43.11 79.3616 41.03V41.02Z" fill="white"/>
</svg>
