<svg width="100" height="100" viewBox="0 0 100 100" fill="none" xmlns="http://www.w3.org/2000/svg">
<path d="M29.4106 44.6599C27.3206 44.6599 25.5606 45.9999 24.8906 47.8699H22.9906C22.1006 47.8699 21.3906 48.5899 21.3906 49.4699C21.3906 50.3499 22.1106 51.0699 22.9906 51.0699H24.8906C25.5506 52.9299 27.3206 54.2799 29.4106 54.2799C32.0606 54.2799 34.2206 52.1199 34.2206 49.4699C34.2206 48.7299 34.0406 48.0399 33.7406 47.4099L40.1806 40.9699C40.8106 41.2699 41.5006 41.4499 42.2406 41.4499C43.4006 41.4499 44.4506 41.0199 45.2806 40.3299L53.5606 45.2999C53.5006 45.6099 53.4606 45.9299 53.4606 46.2599C53.4606 48.9099 55.6206 51.0699 58.2706 51.0699C60.9206 51.0699 63.0806 48.9099 63.0806 46.2599C63.0806 45.4299 62.8506 44.6599 62.4806 43.9799L70.8606 34.6699C71.4306 34.9099 72.0506 35.0399 72.7006 35.0399C74.7906 35.0399 76.5506 33.6999 77.2206 31.8299H79.1206C80.0106 31.8299 80.7206 31.1099 80.7206 30.2299C80.7206 29.3499 80.0006 28.6299 79.1206 28.6299H77.2206C76.5606 26.7699 74.7906 25.4199 72.7006 25.4199C70.0506 25.4199 67.8906 27.5799 67.8906 30.2299C67.8906 31.0599 68.1206 31.8299 68.4906 32.5099L60.1106 41.8199C59.5406 41.5799 58.9206 41.4499 58.2706 41.4499C57.1106 41.4499 56.0606 41.8799 55.2306 42.5699L46.9506 37.5999C47.0106 37.2899 47.0506 36.9699 47.0506 36.6399C47.0506 33.9899 44.8906 31.8299 42.2406 31.8299C39.5906 31.8299 37.4306 33.9899 37.4306 36.6399C37.4306 37.3799 37.6106 38.0699 37.9106 38.6999L31.4706 45.1399C30.8406 44.8399 30.1506 44.6599 29.4106 44.6599ZM29.4106 51.0699C28.5306 51.0699 27.8106 50.3499 27.8106 49.4699C27.8106 48.5899 28.5306 47.8699 29.4106 47.8699C30.2906 47.8699 31.0106 48.5899 31.0106 49.4699C31.0106 50.3499 30.2906 51.0699 29.4106 51.0699ZM72.7106 28.6199C73.5906 28.6199 74.3106 29.3399 74.3106 30.2199C74.3106 31.0999 73.5906 31.8199 72.7106 31.8199C71.8306 31.8199 71.1106 31.0999 71.1106 30.2199C71.1106 29.3399 71.8306 28.6199 72.7106 28.6199ZM58.2806 44.6599C59.1606 44.6599 59.8806 45.3799 59.8806 46.2599C59.8806 47.1399 59.1606 47.8599 58.2806 47.8599C57.4006 47.8599 56.6806 47.1399 56.6806 46.2599C56.6806 45.3799 57.4006 44.6599 58.2806 44.6599ZM42.2406 35.0399C43.1206 35.0399 43.8406 35.7599 43.8406 36.6399C43.8406 37.5199 43.1206 38.2399 42.2406 38.2399C41.3606 38.2399 40.6406 37.5199 40.6406 36.6399C40.6406 35.7599 41.3606 35.0399 42.2406 35.0399Z" fill="white"/>
<path d="M50.2602 67.0999C51.1438 67.0999 51.8602 66.3836 51.8602 65.4999C51.8602 64.6162 51.1438 63.8999 50.2602 63.8999C49.3765 63.8999 48.6602 64.6162 48.6602 65.4999C48.6602 66.3836 49.3765 67.0999 50.2602 67.0999Z" fill="white"/>
<path d="M22.9984 60.6902H77.5184C78.4084 60.6902 79.1184 59.9702 79.1184 59.0902C79.1184 58.2102 78.3984 57.4902 77.5184 57.4902H22.9984C22.1084 57.4902 21.3984 58.2102 21.3984 59.0902C21.3984 59.9702 22.1184 60.6902 22.9984 60.6902Z" fill="white"/>
<path d="M80.7305 19H19.7905C17.1405 19 14.9805 21.16 14.9805 23.81V68.71C14.9805 71.36 17.1405 73.52 19.7905 73.52H37.4305C38.3205 73.52 39.0305 72.8 39.0305 71.92C39.0305 71.04 38.3105 70.32 37.4305 70.32H19.7905C18.9105 70.32 18.1905 69.6 18.1905 68.72V23.81C18.1905 22.93 18.9105 22.21 19.7905 22.21H80.7305C81.6105 22.21 82.3305 22.93 82.3305 23.81V68.71C82.3305 69.59 81.6105 70.31 80.7305 70.31H43.8405C42.9505 70.31 42.2405 71.03 42.2405 71.91V78.32C42.2405 79.2 41.5205 79.92 40.6405 79.92H39.0405C38.1505 79.92 37.4405 80.64 37.4405 81.52C37.4405 82.4 38.1605 83.12 39.0405 83.12H61.4905C62.3805 83.12 63.0905 82.4 63.0905 81.52C63.0905 80.64 62.3705 79.92 61.4905 79.92H59.8905C59.0105 79.92 58.2905 79.2 58.2905 78.32V73.51H80.7405C83.3905 73.51 85.5505 71.35 85.5505 68.7V23.81C85.5505 21.16 83.3905 19 80.7405 19H80.7305ZM55.3705 79.94H45.1605C45.3405 79.44 45.4605 78.9 45.4605 78.34V73.53H55.0805V78.34C55.0805 78.91 55.2005 79.44 55.3805 79.94H55.3705Z" fill="white"/>
</svg>
