<svg width="100" height="100" viewBox="0 0 100 100" fill="none" xmlns="http://www.w3.org/2000/svg">
<path d="M67.6655 36C67.7179 36.0297 67.7723 36.0653 67.8267 36.1069C67.8851 36.0653 67.9456 36.0297 68 36.002C67.8892 36 67.7784 36 67.6655 36ZM32.002 70.7546C32.002 70.8377 32.002 70.9189 32 71C32.0282 70.9565 32.0584 70.9169 32.0907 70.8793L32.002 70.7546Z" fill="#4C5378"/>
<path d="M86.1545 46.1153C85.8157 41.6696 84.6302 37.3007 82.6314 33.1229C83.4132 32.0631 83.4644 30.708 82.7575 29.5556C82.0918 28.4703 80.7114 27.7652 79.5416 27.8617C78.7323 26.7015 77.85 25.6359 77.0092 24.6392C76.828 24.4225 76.637 24.2393 76.4538 24.0601C76.0895 23.7055 75.863 23.475 75.7921 23.1953C75.7272 22.9412 75.4869 22.3523 74.6362 22.1927C73.4743 21.0916 72.2356 20.0595 70.9477 19.1219C71.0383 18.7142 71.0935 18.2079 70.9832 17.6564C70.6543 16.0097 69.5929 14.8554 67.9131 14.3138C66.5149 13.8646 65.1955 14.17 64.0829 15.1942C64.0139 15.1627 63.9411 15.1253 63.8879 15.0977C63.7678 15.0366 63.6457 14.9736 63.5157 14.9204C59.1617 13.0945 54.5949 12.1155 49.9395 12.0091C48.8683 11.9855 47.7773 12.0072 46.7001 12.0801C42.0447 12.3873 37.5292 13.5692 33.2775 15.5901C32.1314 14.7294 30.7254 14.6565 29.5832 15.407C28.5119 16.1121 27.931 17.3629 28.0629 18.6157C27.2142 19.2145 26.1842 19.9709 25.1858 20.8356C23.9412 20.3471 22.5568 20.6366 21.5879 21.6097C20.6151 22.5867 20.3355 23.9635 20.8337 25.1986C20.7746 25.2675 20.7175 25.3365 20.6604 25.4054C20.1898 25.9687 19.7034 26.5498 19.2721 27.186C19.1992 27.2944 19.1441 27.3692 19.1027 27.4204C18.8684 27.3003 18.6498 27.2885 18.5435 27.2885C16.647 27.1033 14.9988 28.0646 14.2386 29.8019C13.573 31.3186 13.9354 33.1209 15.113 34.3343C13.4667 38.061 12.4643 42.0104 12.1295 46.0779C11.8716 49.2058 11.9996 52.2964 12.5076 55.2608C13.0807 58.6173 14.0752 61.8043 15.4635 64.7412C15.243 64.9914 15.0677 65.2908 14.9377 65.6355C14.4789 66.8528 14.6443 68.0051 15.4143 68.9624C16.2315 69.9827 17.3619 70.4259 18.6084 70.2191C19.3351 71.3222 20.2095 72.4449 21.2768 73.6425C23.764 76.4356 26.5682 78.8111 29.6088 80.6981C32.5292 82.5123 35.6545 83.9088 38.8939 84.8464C41.3299 85.5536 43.7738 85.9968 46.1605 86.1701C46.7237 87.3185 47.7635 87.9665 49.1006 87.998C49.1302 88 49.1617 88 49.1912 88C50.485 88 51.5484 87.3362 52.1353 86.1662C53.4232 86.1287 54.6875 85.9121 55.873 85.6934C58.7402 85.1655 61.5583 84.287 64.2581 83.0756C65.0439 83.7099 65.9103 84.0152 66.8359 83.9994H66.8654C68.1494 83.9994 69.3329 83.4538 70.1147 82.4965C70.867 81.5786 71.1703 80.3751 70.9655 79.1696C72.9761 77.6844 74.6854 76.1736 76.1899 74.5585C78.5314 72.0411 80.4987 69.2835 82.0347 66.3623C84.3979 61.8674 85.7803 57.0967 86.1446 52.1861C86.1446 52.1723 86.1466 52.1605 86.1466 52.1506C87.3439 51.5558 88.0174 50.4409 87.9997 49.0817C87.98 47.7128 87.3104 46.6452 86.1545 46.1153ZM14.1658 49.001C14.1677 48.9202 14.1677 48.8395 14.1677 48.7567L14.2544 48.8808C14.2229 48.9183 14.1933 48.9577 14.1658 49.001ZM27.2299 23.1382C27.8463 22.6162 28.5021 22.1396 29.1913 21.6392C29.3823 21.4994 29.5733 21.3615 29.7644 21.2197C29.7663 21.3004 29.7663 21.3891 29.7663 21.4679V25.7895V27.5051C28.9274 26.6503 28.0629 25.7737 27.2004 24.909C27.3934 24.3063 27.4032 23.7075 27.2279 23.1382H27.2299ZM29.7624 47.3109C26.1626 47.2991 22.5135 47.2972 18.9806 47.2972H17.6533C17.7538 47.1967 17.8562 47.0962 17.9566 46.9958C20.1149 44.8409 22.2693 42.684 24.4257 40.5252L27.6947 37.2515C28.3819 36.562 29.0692 35.8726 29.7585 35.1852V38.1221C29.7585 41.185 29.7585 44.248 29.7624 47.3109ZM29.7663 50.6142C29.7663 54.6817 29.7663 58.7512 29.7663 62.8207L29.6797 62.9133C29.5852 62.8089 29.4946 62.6986 29.4335 62.6257C29.3154 62.4819 29.211 62.3578 29.1047 62.2515C27.5745 60.721 26.005 59.1846 24.4847 57.6994C22.1315 55.3948 19.7073 53.0252 17.3698 50.6162C21.1902 50.6103 25.4733 50.6083 29.7663 50.6142ZM23.1732 27.2392C23.764 27.385 24.343 27.3712 24.9042 27.1979C25.6742 27.9759 26.4501 28.752 27.224 29.5261L27.2752 29.5753H24.0495V29.6108C23.3052 29.6088 22.5411 29.6069 21.779 29.6167C21.7199 29.4985 21.6529 29.3803 21.5781 29.2622C22.0724 28.5747 22.61 27.9168 23.1732 27.2392ZM17.9763 35.5417C19.853 35.5319 21.3635 34.5037 21.9385 32.8727C23.7522 32.8747 25.6092 32.8766 27.4839 32.8727C26.7868 33.57 26.0877 34.2673 25.3906 34.9626C24.7152 35.6363 24.0417 36.3099 23.3682 36.9836L20.749 39.6014C18.9728 41.3781 17.1965 43.1528 15.4202 44.9276C15.8101 41.7444 16.6667 38.5968 17.9763 35.5417ZM18.3485 63.5417C16.844 60.3369 15.8456 56.8426 15.3749 53.1493C17.2083 54.9792 19.0397 56.8091 20.8731 58.6409L22.4131 60.1813C24.0614 61.828 25.7628 63.5298 27.4367 65.212C26.7277 65.1825 26.0247 65.1923 25.3394 65.2041C24.9968 65.2081 24.6541 65.214 24.3134 65.214H23.4076C22.6297 65.21 21.8262 65.2081 21.0169 65.2159C20.4655 64.1917 19.534 63.6067 18.3485 63.5417ZM23.9018 71.9091C23.057 70.9696 22.2161 69.9079 21.2512 68.5724C21.9483 68.5842 22.6415 68.5803 23.3189 68.5763C23.6636 68.5744 24.0082 68.5724 24.3508 68.5724H27.2457C26.1114 69.6754 24.9928 70.8061 23.9018 71.9091ZM29.7722 70.9065C29.7368 71.7516 29.7447 72.5986 29.7506 73.418C29.7545 73.7587 29.7585 74.1015 29.7585 74.4422V77.0778C28.5454 76.2327 27.3658 75.2892 26.1921 74.2236C27.4071 73.028 28.6005 71.8185 29.7663 70.6387C29.7663 70.6387 29.7722 70.6387 29.7742 70.6406C29.7762 70.6938 29.7781 70.7785 29.7722 70.9065ZM50.8474 27.6883C50.8474 24.2866 50.8454 20.8868 50.8494 17.489C54.8214 21.4344 58.7895 25.3818 62.7595 29.3291L63.0076 29.5773C61.6764 29.5793 60.3432 29.5793 59.012 29.5793H57.6217H55.4555C53.9194 29.5773 52.3834 29.5793 50.8474 29.5773V27.6883ZM65.1994 46.2296C64.7524 46.4758 64.3704 46.8402 64.071 47.3031C60.2979 47.2991 56.6154 47.2991 53.112 47.305C53.8682 46.5585 54.6225 45.7982 55.357 45.0615C55.7548 44.6616 56.1526 44.2618 56.5524 43.8619L57.0348 43.3774C59.7544 40.6591 62.472 37.9389 65.1935 35.2246C65.1955 36.3139 65.1935 37.4031 65.1935 38.4924V41.3584C65.1916 42.9539 65.1896 44.6025 65.1994 46.2296ZM49.3488 14.168C49.2956 14.1956 49.2365 14.231 49.1794 14.2724C49.1262 14.231 49.0731 14.1956 49.0219 14.166C49.1321 14.166 49.2405 14.166 49.3488 14.168ZM47.4839 45.1817C47.4839 45.1817 47.4661 45.1639 47.4583 45.156C44.3744 42.0537 41.2295 38.9119 38.1889 35.8726C37.1885 34.872 36.1881 33.8714 35.1877 32.8727C36.58 32.8786 37.9802 32.8766 39.3409 32.8766H42.155V32.8727H42.858C44.3744 32.8747 45.938 32.8766 47.4858 32.8668C47.4721 36.9658 47.476 41.0353 47.4839 45.1817ZM33.0629 58.5149C33.0629 58.2588 33.0609 58.0027 33.0609 57.7467H33.0708V56.6633C33.0708 56.0822 33.0727 55.4992 33.0727 54.9181C33.0767 53.5117 33.0806 52.0639 33.0629 50.626C35.3098 50.6339 37.6926 50.6339 40.5126 50.63C41.901 50.628 43.5315 50.6221 45.2212 50.6024C45.1503 50.6812 45.0656 50.7639 45.0242 50.8072C41.2196 54.5852 37.3697 58.442 33.6438 62.1707L33.053 62.7616C33.0727 61.3375 33.0668 59.9055 33.0629 58.5149ZM33.0708 42.6486V39.8259H33.0668V35.3802C34.016 36.3316 34.9672 37.283 35.9183 38.2344L38.5493 40.864C40.6623 42.9775 42.8443 45.158 44.9927 47.3149C43.0727 47.3031 41.1448 47.2972 39.2208 47.2972C37.1531 47.2972 35.0932 47.3031 33.0649 47.309C33.0747 45.7489 33.0727 44.1751 33.0708 42.6486ZM47.3578 17.5796L47.478 17.4575V24.6037C47.476 26.2366 47.474 27.9188 47.4819 29.5852C45.0656 29.5793 42.6296 29.5773 40.2173 29.5773C38.8644 29.5773 37.5194 29.5773 36.1901 29.5793H35.363C39.3587 25.5787 43.3582 21.5782 47.3578 17.5796ZM33.0511 25.8722H33.0629V24.7889C33.0629 24.4461 33.0649 24.1054 33.0649 23.7646C33.0649 22.9235 33.0688 22.0549 33.059 21.1803C34.146 20.5638 34.7447 19.573 34.7801 18.3399C37.0231 17.2999 39.337 16.51 41.6647 15.99C42.7478 15.7477 43.8309 15.5586 44.9041 15.4227C43.3799 16.9512 41.8517 18.4798 40.3256 20.0063C37.9014 22.4291 35.4772 24.8519 33.0511 27.2747V25.8722ZM33.053 79.1105C33.0826 78.0843 33.0786 77.0482 33.0727 76.0476C33.0708 75.6497 33.0688 75.2518 33.0688 74.8539V73.7706H33.0511V73.6681C33.053 72.7345 33.055 71.7732 33.0471 70.8199H33.0491C37.0802 74.8559 41.1133 78.8899 45.1463 82.92C40.8632 82.4 36.8006 81.1197 33.053 79.1105ZM47.4898 80.6509C42.7182 75.8762 38.9392 72.1022 35.3965 68.5685C38.9766 68.5724 42.6158 68.5724 46.2314 68.5665C46.5386 69.1042 46.9659 69.5277 47.4898 69.8173C47.4878 71.3123 47.4878 72.8054 47.4878 74.3004V80.6509H47.4898ZM47.4917 53.429V53.492C47.4819 55.2392 47.4819 56.9568 47.4839 58.4085L47.4878 60.331C47.4898 61.4852 47.4917 62.6375 47.4917 63.7918C47.4917 63.8371 47.4917 63.912 47.4878 63.9632C47.4602 63.9947 47.4189 64.0341 47.3913 64.0636C47.2456 64.2114 47.1077 64.369 46.9738 64.5206C46.7552 64.7708 46.5288 65.0288 46.3417 65.1549C46.2491 65.2179 46.2334 65.2278 45.8218 65.2219C45.747 65.2219 45.6702 65.2218 45.5894 65.2179C44.4138 65.2159 43.2401 65.214 42.0644 65.214C41.515 65.212 40.9656 65.212 40.4162 65.212C38.6773 65.212 36.9365 65.214 35.1976 65.2199C35.2547 65.1509 35.3394 65.0623 35.4536 64.95C39.4374 61.0046 43.4134 57.01 47.478 52.9228C47.4937 53.0567 47.4917 53.2734 47.4917 53.429ZM50.8454 35.8372C50.8454 34.8484 50.8434 33.8615 50.8434 32.8747H56.5169V32.8845H58.9372C60.2447 32.8845 61.5819 32.8845 62.917 32.8865C60.8493 34.9547 58.7816 37.023 56.7119 39.0912L53.5098 42.296C52.6296 43.1745 51.7257 44.0786 50.8316 44.9807C50.8533 41.9257 50.8494 38.8332 50.8454 35.8372ZM57.6217 59.9331L60.9557 63.2698C61.6035 63.9179 62.2495 64.564 62.8954 65.212C61.765 65.214 60.6366 65.214 59.5063 65.214H56.7867C55.2566 65.214 53.6792 65.212 52.1195 65.2199C51.8399 64.6703 51.4007 64.2271 50.8454 63.9356V63.0354C50.8533 59.7932 50.8592 56.4466 50.8356 53.1394C53.0963 55.4046 55.359 57.6679 57.6217 59.9331ZM50.8474 80.6174V78.6713C50.8494 75.7679 50.8494 72.764 50.8395 69.8094C51.3535 69.5612 51.7788 69.1279 52.0644 68.5645C53.6221 68.5724 55.2014 68.5724 56.7316 68.5704H60.0006C60.9655 68.5704 61.9304 68.5704 62.8954 68.5724C58.8781 72.5867 54.8627 76.603 50.8474 80.6174ZM62.793 80.3121C59.7426 81.6436 56.5051 82.5202 53.1495 82.9259C56.5563 79.536 59.9907 76.0968 63.3207 72.762L65.2093 70.8711V72.634C65.2093 73.0063 65.2093 73.3786 65.2073 73.7509C65.2073 74.5112 65.2053 75.2932 65.2132 76.083C63.5275 76.8059 62.5665 78.4822 62.793 80.3121ZM65.2093 56.7559V59.6573C65.2093 60.7348 65.2093 61.8122 65.2073 62.8916C63.9942 61.6802 62.7831 60.4689 61.5701 59.2555C58.7028 56.3915 55.8375 53.5275 52.9643 50.6635C52.9663 50.6497 52.9703 50.6379 52.9722 50.626C53.0924 50.6162 53.2637 50.6182 53.3326 50.6182C56.7473 50.6497 60.2152 50.6398 63.5689 50.63H63.8465C64.1163 51.2465 64.589 51.7448 65.2152 52.0718C65.2073 53.6319 65.2073 55.1939 65.2093 56.7559ZM65.2073 26.668V27.3239C62.0447 24.1448 58.882 20.9636 55.7213 17.7825L53.3818 15.4306C55.3669 15.6748 57.2121 16.0649 58.9824 16.6184C60.3215 17.034 61.5622 17.4949 62.7654 18.0169C62.6571 19.8172 63.5649 21.3123 65.2152 22.0411C65.2093 23.5834 65.2093 25.1257 65.2073 26.668ZM79.8055 34.5943C81.1289 37.4346 82.0623 40.3479 82.5822 43.2533C82.6905 43.858 82.7712 44.4588 82.85 45.0812C80.7449 42.9617 78.6377 40.8423 76.5306 38.7229L70.7292 32.8845C71.1604 32.8826 71.5897 32.8845 72.021 32.8845L74.1124 32.8766C75.0241 32.8786 75.9615 32.8806 76.9068 32.8727C77.5172 33.9639 78.555 34.5785 79.8055 34.5943ZM69.6303 47.2991C69.6145 47.2775 69.5949 47.2479 69.5712 47.2085L69.5535 47.1829C69.3704 46.8914 69.0927 46.4502 68.5826 46.1921C68.5787 46.1902 68.5748 46.1882 68.5708 46.1862V46.1783C68.5689 42.4929 68.5689 38.8095 68.5708 35.1241L80.8217 47.3011C77.0919 47.3011 73.3621 47.3011 69.6303 47.2991ZM80.8197 50.6103C79.4058 52.0186 77.9643 53.4329 76.5641 54.8058C73.9174 57.402 71.19 60.0769 68.5708 62.7951C68.5689 59.2141 68.5689 55.6312 68.5708 52.0521C69.1577 51.7094 69.6126 51.217 69.908 50.6024C72.2002 50.6063 74.4924 50.6063 76.7847 50.6083C78.1297 50.6083 79.4747 50.6083 80.8197 50.6083V50.6103ZM74.1773 26.2406C75.1108 27.2629 76.0127 28.3856 76.8693 29.5931C76.8359 29.5931 76.7965 29.5931 76.7492 29.5911C76.2175 29.5773 75.6819 29.5734 75.1502 29.5734C74.7898 29.5734 74.4294 29.5753 74.0749 29.5773H72.1746L70.8453 29.5753C70.9674 29.4532 71.0895 29.3311 71.2097 29.209C72.1982 28.2221 73.1868 27.2353 74.1773 26.2406ZM68.5531 26.0948C68.5531 24.7554 68.5531 23.4179 68.5492 22.0785C68.7697 21.9918 68.9844 21.8756 69.1872 21.7318C70.0852 22.4094 70.9714 23.1362 71.8772 23.9379C70.7587 25.043 69.6421 26.1657 68.5551 27.257V26.0948H68.5531ZM69.3448 76.4967C69.1124 76.3214 68.8505 76.1756 68.5669 76.0633C68.5748 75.2577 68.5728 74.4462 68.5708 73.6583C68.5708 73.3195 68.5689 72.9807 68.5689 72.6419V70.879C68.6673 70.9755 68.7638 71.074 68.8623 71.1705C69.8902 72.2007 70.9517 73.2604 72.0072 74.3083C71.1407 75.0824 70.2506 75.8151 69.3448 76.4967ZM74.3014 72.0194C74.1005 71.8264 73.8997 71.6353 73.6988 71.4443C73.045 70.8238 72.4286 70.2368 71.8516 69.6065C71.5169 69.2382 71.1663 68.8974 70.8256 68.5685H72.6157V68.5724H77.0485C76.1604 69.8448 75.2545 70.9834 74.3014 72.0194ZM81.6251 59.2358C80.9871 61.2646 80.1442 63.2777 79.1202 65.2238C78.3561 65.214 77.5881 65.212 76.826 65.212C76.3613 65.212 75.9005 65.212 75.4456 65.214H75.1443L70.8828 65.212L73.7146 62.3775C76.7788 59.3126 79.8429 56.2477 82.9032 53.1788C82.6393 55.3515 82.2179 57.3429 81.6251 59.2358Z" fill="#4C5378"/>
</svg>
