<svg width="100" height="100" viewBox="0 0 100 100" fill="none" xmlns="http://www.w3.org/2000/svg">
<path d="M57.7405 49.4299H67.3605C68.2505 49.4299 68.9605 48.7099 68.9605 47.8299C68.9605 46.9499 68.2405 46.2299 67.3605 46.2299H58.7705L54.8505 37.5499C54.5905 36.9799 54.0205 36.6099 53.3905 36.6099C52.7605 36.6099 52.1905 36.9899 51.9305 37.5699L44.8605 53.5999L41.8105 47.1499C41.5505 46.5899 40.9805 46.2299 40.3605 46.2299H32.0805C31.1905 46.2299 30.4805 46.9499 30.4805 47.8299C30.4805 48.7099 31.2005 49.4299 32.0805 49.4299H39.3405L43.4605 58.1299C43.7305 58.6899 44.2905 59.0499 44.9105 59.0499H44.9305C45.5605 59.0499 46.1205 58.6699 46.3805 58.0899L53.4105 42.1399L56.2805 48.4899C56.5405 49.0599 57.1105 49.4299 57.7405 49.4299Z" fill="white"/>
<path d="M77.5414 26.6497C69.8914 18.8297 57.6514 18.6697 49.7314 26.0197C41.8014 18.6697 29.5714 18.8297 21.9214 26.6497C14.0314 34.6997 14.0314 47.7497 21.9214 55.8097C24.1714 58.1097 45.2214 79.5897 45.2214 79.5897C47.7114 82.1397 51.7514 82.1397 54.2414 79.5897C54.2414 79.5897 77.2914 56.0697 77.5414 55.8097C85.4314 47.7497 85.4314 34.6997 77.5414 26.6497ZM74.5314 52.7397L51.2314 76.5197C50.4014 77.3697 49.0514 77.3697 48.2314 76.5197L24.9314 52.7397C18.7114 46.3897 18.7114 36.0697 24.9314 29.7197C30.9314 23.5997 40.5714 23.3897 46.8814 29.2397L49.7414 31.8897L52.6014 29.2397C58.9114 23.3897 68.5514 23.5997 74.5514 29.7197C80.7714 36.0697 80.7714 46.3897 74.5514 52.7397H74.5314Z" fill="white"/>
</svg>
