<svg width="100" height="100" viewBox="0 0 100 100" fill="none" xmlns="http://www.w3.org/2000/svg">
<path d="M33.2189 28.1603C35.8689 28.1603 38.0289 26.0003 38.0289 23.3503C38.0289 22.4703 38.7489 21.7503 39.6289 21.7503C42.2789 21.7503 44.4389 19.5903 44.4389 16.9403C44.4389 16.0503 43.7189 15.3403 42.8389 15.3403C41.9589 15.3403 41.2389 16.0603 41.2389 16.9403C41.2389 17.8203 40.5189 18.5403 39.6389 18.5403C36.9889 18.5403 34.8289 20.7003 34.8289 23.3503C34.8289 24.2303 34.1089 24.9503 33.2289 24.9503C32.3489 24.9503 31.6289 25.6703 31.6289 26.5503C31.6289 27.4303 32.3489 28.1503 33.2289 28.1503L33.2189 28.1603Z" fill="white"/>
<path d="M41.2405 26.5503C41.2405 27.4403 41.9605 28.1503 42.8405 28.1503C43.7205 28.1503 44.4405 27.4303 44.4405 26.5503C44.4405 25.6703 45.1605 24.9503 46.0405 24.9503C48.6905 24.9503 50.8505 22.7903 50.8505 20.1403C50.8505 19.2603 51.5705 18.5403 52.4505 18.5403C53.3305 18.5403 54.0505 17.8203 54.0505 16.9403C54.0505 16.0603 53.3305 15.3403 52.4505 15.3403C49.8005 15.3403 47.6405 17.5003 47.6405 20.1503C47.6405 21.0303 46.9205 21.7503 46.0405 21.7503C43.3905 21.7503 41.2305 23.9103 41.2305 26.5603L41.2405 26.5503Z" fill="white"/>
<path d="M60.4789 37.7799C63.1289 37.7799 65.2889 35.6199 65.2889 32.9699C65.2889 32.0899 66.0089 31.3699 66.8889 31.3699C67.7689 31.3699 68.4889 30.6499 68.4889 29.7699C68.4889 28.8899 67.7689 28.1699 66.8889 28.1699C64.2389 28.1699 62.0789 30.3299 62.0789 32.9799C62.0789 33.8599 61.3589 34.5799 60.4789 34.5799C59.5989 34.5799 58.8789 35.2999 58.8789 36.1799C58.8789 37.0599 59.5989 37.7799 60.4789 37.7799Z" fill="white"/>
<path d="M66.8984 36.1799C66.8984 37.0699 67.6184 37.7799 68.4984 37.7799C69.3784 37.7799 70.0984 37.0599 70.0984 36.1799C70.0984 35.2999 70.8184 34.5799 71.6984 34.5799C74.3484 34.5799 76.5084 32.4199 76.5084 29.7699C76.5084 28.8799 75.7884 28.1699 74.9084 28.1699C74.0284 28.1699 73.3084 28.8899 73.3084 29.7699C73.3084 30.6499 72.5884 31.3699 71.7084 31.3699C69.0584 31.3699 66.8984 33.5299 66.8984 36.1799Z" fill="white"/>
<path d="M84.419 83.6899L81.349 76.0099C77.079 65.3299 74.909 54.0899 74.909 42.5899C74.909 41.6999 74.189 40.9899 73.309 40.9899H57.269C56.379 40.9899 55.669 41.7099 55.669 42.5899V48.9999C55.669 49.8899 56.389 50.5999 57.269 50.5999H66.889C67.779 50.5999 68.489 49.8799 68.489 48.9999C68.489 48.1199 67.769 47.3999 66.889 47.3999H58.869V44.1899H71.709C71.899 55.5399 74.139 66.6399 78.359 77.1999L80.549 82.6799H61.599L59.209 75.9199C54.719 63.1999 52.449 49.9199 52.449 36.4299V32.9799C52.449 32.0899 51.729 31.3799 50.849 31.3799H25.199C24.309 31.3799 23.599 32.0999 23.599 32.9799V36.4299C23.599 49.9199 21.319 63.1999 16.839 75.9199L14.079 83.7499C13.909 84.2399 13.979 84.7899 14.279 85.2099C14.579 85.6399 15.069 85.8899 15.589 85.8899H54.069C54.959 85.8899 55.669 85.1699 55.669 84.2899C55.669 83.4099 54.949 82.6899 54.069 82.6899H17.849L19.859 76.9899C24.469 63.9299 26.809 50.2799 26.809 36.4299V34.5799H49.259V36.4299C49.259 37.9499 49.299 39.4799 49.359 40.9899H31.619C30.729 40.9899 30.019 41.7099 30.019 42.5899C30.019 43.4699 30.739 44.1899 31.619 44.1899H49.529C50.239 55.3699 52.459 66.3699 56.199 76.9799L58.959 84.8099C59.189 85.4499 59.789 85.8799 60.469 85.8799H82.919C83.449 85.8799 83.949 85.6199 84.249 85.1799C84.549 84.7399 84.609 84.1799 84.409 83.6899H84.419Z" fill="white"/>
</svg>
