<svg width="100" height="100" viewBox="0 0 100 100" fill="none" xmlns="http://www.w3.org/2000/svg">
<path d="M31.5883 34.0301C32.4719 34.0301 33.1883 33.3137 33.1883 32.4301C33.1883 31.5464 32.4719 30.8301 31.5883 30.8301C30.7046 30.8301 29.9883 31.5464 29.9883 32.4301C29.9883 33.3137 30.7046 34.0301 31.5883 34.0301Z" fill="white"/>
<path d="M66.8695 34.0301C67.7532 34.0301 68.4695 33.3137 68.4695 32.4301C68.4695 31.5464 67.7532 30.8301 66.8695 30.8301C65.9859 30.8301 65.2695 31.5464 65.2695 32.4301C65.2695 33.3137 65.9859 34.0301 66.8695 34.0301Z" fill="white"/>
<path d="M31.5883 69.3099C32.4719 69.3099 33.1883 68.5936 33.1883 67.7099C33.1883 66.8263 32.4719 66.1099 31.5883 66.1099C30.7046 66.1099 29.9883 66.8263 29.9883 67.7099C29.9883 68.5936 30.7046 69.3099 31.5883 69.3099Z" fill="white"/>
<path d="M66.8695 69.3099C67.7532 69.3099 68.4695 68.5936 68.4695 67.7099C68.4695 66.8263 67.7532 66.1099 66.8695 66.1099C65.9859 66.1099 65.2695 66.8263 65.2695 67.7099C65.2695 68.5936 65.9859 69.3099 66.8695 69.3099Z" fill="white"/>
<path d="M82.9109 46.8703C83.8009 46.8703 84.5109 46.1503 84.5109 45.2703C84.5109 44.3903 83.7909 43.6703 82.9109 43.6703H74.8909V37.2603H82.9109C83.8009 37.2603 84.5109 36.5403 84.5109 35.6603C84.5109 34.7803 83.7909 34.0603 82.9109 34.0603H74.8909V32.4603C74.8909 28.0403 71.2909 24.4403 66.8709 24.4403H65.2709V16.4203C65.2709 15.5303 64.5509 14.8203 63.6709 14.8203C62.7909 14.8203 62.0709 15.5403 62.0709 16.4203V24.4403H55.6609V16.4203C55.6609 15.5303 54.9409 14.8203 54.0609 14.8203C53.1809 14.8203 52.4609 15.5403 52.4609 16.4203V24.4403H46.0509V16.4203C46.0509 15.5303 45.3309 14.8203 44.4509 14.8203C43.5709 14.8203 42.8509 15.5403 42.8509 16.4203V24.4403H36.4409V16.4203C36.4409 15.5303 35.7209 14.8203 34.8409 14.8203C33.9609 14.8203 33.2409 15.5403 33.2409 16.4203V24.4403H31.6409C27.2209 24.4403 23.6209 28.0403 23.6209 32.4603V34.0603H15.5609C14.6709 34.0603 13.9609 34.7803 13.9609 35.6603C13.9609 36.5403 14.6809 37.2603 15.5609 37.2603H23.5809V43.6703H15.5609C14.6709 43.6703 13.9609 44.3903 13.9609 45.2703C13.9609 46.1503 14.6809 46.8703 15.5609 46.8703H23.5809V53.2803H15.5609C14.6709 53.2803 13.9609 54.0003 13.9609 54.8803C13.9609 55.7603 14.6809 56.4803 15.5609 56.4803H23.5809V62.8903H15.5609C14.6709 62.8903 13.9609 63.6103 13.9609 64.4903C13.9609 65.3703 14.6809 66.0903 15.5609 66.0903H23.5809V67.6903C23.5809 72.1103 27.1809 75.7103 31.6009 75.7103H33.2009V83.7303C33.2009 84.6203 33.9209 85.3303 34.8009 85.3303C35.6809 85.3303 36.4009 84.6103 36.4009 83.7303V75.7103H42.8109V83.7303C42.8109 84.6203 43.5309 85.3303 44.4109 85.3303C45.2909 85.3303 46.0109 84.6103 46.0109 83.7303V75.7103H52.4209V83.7303C52.4209 84.6203 53.1409 85.3303 54.0209 85.3303C54.9009 85.3303 55.6209 84.6103 55.6209 83.7303V75.7103H62.0309V83.7303C62.0309 84.6203 62.7509 85.3303 63.6309 85.3303C64.5109 85.3303 65.2309 84.6103 65.2309 83.7303V75.7103H66.8309C71.2509 75.7103 74.8509 72.1103 74.8509 67.6903V66.0903H82.8709C83.7609 66.0903 84.4709 65.3703 84.4709 64.4903C84.4709 63.6103 83.7509 62.8903 82.8709 62.8903H73.2509C72.3609 62.8903 71.6509 63.6103 71.6509 64.4903V67.7003C71.6509 70.3503 69.4909 72.5103 66.8409 72.5103H31.5909C28.9409 72.5103 26.7809 70.3503 26.7809 67.7003V32.4303C26.7809 29.7803 28.9409 27.6203 31.5909 27.6203H66.8709C69.5209 27.6203 71.6809 29.7803 71.6809 32.4303V58.0903C71.6809 58.9803 72.4009 59.6903 73.2809 59.6903C74.1609 59.6903 74.8809 58.9703 74.8809 58.0903V56.4903H82.9009C83.7909 56.4903 84.5009 55.7703 84.5009 54.8903C84.5009 54.0103 83.7809 53.2903 82.9009 53.2903H74.8809V46.8803H82.9009L82.9109 46.8703Z" fill="white"/>
<path d="M38.0092 37.24H47.6292C48.5192 37.24 49.2292 36.52 49.2292 35.64C49.2292 34.76 48.5092 34.04 47.6292 34.04H38.0092C35.3592 34.04 33.1992 36.2 33.1992 38.85V61.3C33.1992 63.95 35.3592 66.11 38.0092 66.11H44.4192C45.3092 66.11 46.0192 65.39 46.0192 64.51V49.78C47.8792 49.12 49.2292 47.35 49.2292 45.26C49.2292 42.61 47.0692 40.45 44.4192 40.45C41.7692 40.45 39.6092 42.61 39.6092 45.26C39.6092 47.35 40.9492 49.11 42.8192 49.78V62.9H38.0092C37.1292 62.9 36.4092 62.18 36.4092 61.3V38.85C36.4092 37.97 37.1292 37.25 38.0092 37.25V37.24ZM44.4192 43.65C45.2992 43.65 46.0192 44.37 46.0192 45.25C46.0192 46.13 45.2992 46.85 44.4192 46.85C43.5392 46.85 42.8192 46.13 42.8192 45.25C42.8192 44.37 43.5392 43.65 44.4192 43.65Z" fill="white"/>
<path d="M60.4505 62.8998H50.8305C49.9405 62.8998 49.2305 63.6198 49.2305 64.4998C49.2305 65.3798 49.9505 66.0998 50.8305 66.0998H60.4505C63.1005 66.0998 65.2605 63.9398 65.2605 61.2898V38.8398C65.2605 36.1898 63.1005 34.0298 60.4505 34.0298H54.0405C53.1505 34.0298 52.4405 34.7498 52.4405 35.6298V50.3598C50.5805 51.0198 49.2305 52.7898 49.2305 54.8798C49.2305 57.5298 51.3905 59.6898 54.0405 59.6898C56.6905 59.6898 58.8505 57.5298 58.8505 54.8798C58.8505 52.7898 57.5105 51.0298 55.6405 50.3598V37.2398H60.4505C61.3305 37.2398 62.0505 37.9598 62.0505 38.8398V61.2898C62.0505 62.1698 61.3305 62.8898 60.4505 62.8898V62.8998ZM54.0405 56.4898C53.1605 56.4898 52.4405 55.7698 52.4405 54.8898C52.4405 54.0098 53.1605 53.2898 54.0405 53.2898C54.9205 53.2898 55.6405 54.0098 55.6405 54.8898C55.6405 55.7698 54.9205 56.4898 54.0405 56.4898Z" fill="white"/>
</svg>
