<svg width="100" height="100" viewBox="0 0 100 100" fill="none" xmlns="http://www.w3.org/2000/svg">
<path d="M64.1586 74.66C65.0423 74.66 65.7586 73.9436 65.7586 73.06C65.7586 72.1763 65.0423 71.46 64.1586 71.46C63.2749 71.46 62.5586 72.1763 62.5586 73.06C62.5586 73.9436 63.2749 74.66 64.1586 74.66Z" fill="white"/>
<path d="M35.2914 74.66C36.1751 74.66 36.8914 73.9436 36.8914 73.06C36.8914 72.1763 36.1751 71.46 35.2914 71.46C34.4078 71.46 33.6914 72.1763 33.6914 73.06C33.6914 73.9436 34.4078 74.66 35.2914 74.66Z" fill="white"/>
<path d="M24.0719 36.1699C24.5619 36.1699 25.0419 35.9499 25.3519 35.5299L29.5519 29.9299L36.5819 31.3299C37.1719 31.4499 37.7719 31.2299 38.1519 30.7599L43.5919 23.9599L48.7619 27.8399C49.3319 28.2699 50.1119 28.2699 50.6819 27.8399L55.8119 23.9899L59.6619 29.1199C60.0319 29.6099 60.6519 29.8599 61.2619 29.7299L68.3219 28.3199L74.1219 35.5799C74.6719 36.2699 75.6819 36.3799 76.3719 35.8299C77.0619 35.2799 77.1719 34.2699 76.6219 33.5799L70.2119 25.5599C69.8319 25.0899 69.2319 24.8799 68.6419 24.9899L61.6119 26.3899L57.4119 20.7899C56.8819 20.0799 55.8819 19.9399 55.1719 20.4699L49.7219 24.5599L44.2719 20.4699C43.5819 19.9499 42.6019 20.0699 42.0619 20.7499L36.2519 28.0099L29.1919 26.5999C28.5819 26.4699 27.9619 26.7199 27.5919 27.2099L22.7819 33.6199C22.2519 34.3299 22.3919 35.3299 23.1019 35.8599C23.3919 36.0799 23.7319 36.1799 24.0619 36.1799L24.0719 36.1699Z" fill="white"/>
<path d="M77.3984 70.6101L80.5684 50.8601C80.7084 49.9901 80.1184 49.1601 79.2384 49.0201C78.3584 48.8701 77.5384 49.4701 77.3984 50.3501L74.2284 70.1001C74.0984 70.8801 73.4384 71.4501 72.6484 71.4501H72.0084C71.2584 67.8001 68.0284 65.0401 64.1484 65.0401C60.2684 65.0401 57.0384 67.8001 56.2884 71.4501H48.1084C47.2184 71.4501 46.5084 72.1701 46.5084 73.0501C46.5084 73.9301 47.2284 74.6501 48.1084 74.6501H57.7284C58.6184 74.6501 59.3284 73.9301 59.3284 73.0501C59.3284 70.4001 61.4884 68.2401 64.1384 68.2401C66.7884 68.2401 68.9484 70.4001 68.9484 73.0501C68.9484 75.7001 66.7884 77.8601 64.1384 77.8601H46.4984C45.6084 77.8601 44.8984 78.5801 44.8984 79.4601C44.8984 80.3401 45.6184 81.0601 46.4984 81.0601H64.1384C68.0084 81.0601 71.2484 78.3001 71.9984 74.6501H72.6384C75.0084 74.6501 77.0084 72.9501 77.3884 70.6001L77.3984 70.6101Z" fill="white"/>
<path d="M83.4015 77.8701H75.3814C74.4914 77.8701 73.7812 78.5901 73.7812 79.4701C73.7812 80.3501 74.5014 81.0701 75.3814 81.0701H83.4015C84.2915 81.0701 85.0015 80.3501 85.0015 79.4701C85.0015 78.5901 84.2815 77.8701 83.4015 77.8701Z" fill="white"/>
<path d="M35.2914 65.04C31.4214 65.04 28.1814 67.8 27.4314 71.45H26.7814C25.9914 71.45 25.3314 70.89 25.2014 70.11L20.8414 43.93C20.7114 43.16 20.0414 42.59 19.2614 42.59H18.4614C18.0214 42.59 17.6614 42.23 17.6614 41.79C17.6614 41.35 18.0214 40.99 18.4614 40.99H81.0014C81.4414 40.99 81.8014 41.35 81.8014 41.79C81.8014 42.23 81.4414 42.59 81.0014 42.59H28.8814C27.9914 42.59 27.2814 43.31 27.2814 44.19C27.2814 45.07 28.0014 45.79 28.8814 45.79H81.0014C83.2114 45.79 85.0114 43.99 85.0114 41.78C85.0114 39.57 83.2114 37.77 81.0014 37.77H18.4514C16.2414 37.77 14.4414 39.57 14.4414 41.78C14.4414 43.8 15.9414 45.48 17.8914 45.75L22.0414 70.63C22.4314 72.96 24.4214 74.65 26.7814 74.65H28.8714C29.7614 74.65 30.4714 73.93 30.4714 73.05C30.4714 70.4 32.6314 68.24 35.2814 68.24C37.9314 68.24 40.0914 70.4 40.0914 73.05C40.0914 75.7 37.9314 77.86 35.2814 77.86H16.0514C15.1614 77.86 14.4514 78.58 14.4514 79.46C14.4514 80.34 15.1714 81.06 16.0514 81.06H35.2914C39.7114 81.06 43.3114 77.46 43.3114 73.04C43.3114 68.62 39.7114 65.02 35.2914 65.02V65.04Z" fill="white"/>
</svg>
