<svg width="100" height="100" viewBox="0 0 100 100" fill="none" xmlns="http://www.w3.org/2000/svg">
<path d="M55.6703 30.0403C56.554 30.0403 57.2703 29.3239 57.2703 28.4403C57.2703 27.5566 56.554 26.8403 55.6703 26.8403C54.7867 26.8403 54.0703 27.5566 54.0703 28.4403C54.0703 29.3239 54.7867 30.0403 55.6703 30.0403Z" fill="white"/>
<path d="M84.0705 60.9799C80.7305 57.6399 75.5205 56.9099 71.5005 59.1499L64.7705 62.2899C62.9305 63.1499 60.9005 63.6199 58.8705 63.6799C59.8805 62.3399 60.4905 60.6999 60.4905 58.8999C60.4905 57.0999 59.0505 55.6899 57.2805 55.6899H40.6505C36.4905 55.6899 32.5305 57.4899 29.7905 60.6199L24.1105 67.1099C23.2305 66.0299 21.9005 65.3199 20.3905 65.3199H15.5805C14.6905 65.3199 13.9805 66.0399 13.9805 66.9199C13.9805 67.7999 14.7005 68.5199 15.5805 68.5199H20.3905C21.2705 68.5199 21.9905 69.2399 21.9905 70.1199V79.7399C21.9905 80.6199 21.2705 81.3399 20.3905 81.3399H15.5805C14.6905 81.3399 13.9805 82.0599 13.9805 82.9399C13.9805 83.8199 14.7005 84.5399 15.5805 84.5399H20.3905C23.0405 84.5399 25.2005 82.3799 25.2005 79.7299V70.7099L32.2005 62.7199C34.3305 60.2799 37.4105 58.8899 40.6505 58.8899H57.2805C57.2805 61.5399 55.1205 63.6999 52.4705 63.6999H42.8505C41.9605 63.6999 41.2505 64.4199 41.2505 65.2999C41.2505 66.1799 41.9705 66.8999 42.8505 66.8999H58.3905C61.0505 66.8999 63.7205 66.2999 66.1305 65.1799L72.9605 61.9799C75.2805 60.6899 78.0805 60.7699 80.3005 62.0599L66.9405 72.0799C64.4205 73.9699 61.4305 75.1499 58.3005 75.4999L35.7105 78.0099C35.0705 78.0799 34.4105 78.1199 33.7605 78.1199H30.0205C29.1305 78.1199 28.4205 78.8399 28.4205 79.7199C28.4205 80.5999 29.1405 81.3199 30.0205 81.3199H33.7605C34.5305 81.3199 35.3005 81.2799 36.0605 81.1899L58.6505 78.6799C62.3505 78.2699 65.8805 76.8699 68.8605 74.6399L83.9005 63.3599C84.2705 63.0799 84.5005 62.6499 84.5405 62.1899C84.5805 61.7299 84.4005 61.2699 84.0705 60.9399V60.9799Z" fill="white"/>
<path d="M33.2194 36.4602H36.4294V50.8902C36.4294 51.7802 37.1494 52.4902 38.0294 52.4902C38.9094 52.4902 39.6294 51.7702 39.6294 50.8902V34.8502C39.6294 33.9602 38.9094 33.2502 38.0294 33.2502H34.8294C34.8894 32.7602 35.1594 32.3302 35.5794 32.0702L53.5294 21.0202C54.8094 20.2302 56.5094 20.2302 57.7894 21.0202L75.7394 32.0702C76.1594 32.3302 76.4394 32.7602 76.4894 33.2502H73.2894C72.3994 33.2502 71.6894 33.9702 71.6894 34.8502V54.0902C71.6894 54.9802 72.4094 55.6902 73.2894 55.6902C74.1694 55.6902 74.8894 54.9702 74.8894 54.0902V36.4502H78.0994C78.9894 36.4502 79.6994 35.7302 79.6994 34.8502V33.4402C79.6994 31.7602 78.8394 30.2302 77.4094 29.3402L74.8894 27.7902V18.8202C74.8894 17.9302 74.1694 17.2202 73.2894 17.2202H66.8794C65.9894 17.2202 65.2794 17.9402 65.2794 18.8202V21.8702L59.4694 18.2902C57.1794 16.8802 54.1494 16.8802 51.8494 18.2902L33.8994 29.3402C32.4694 30.2202 31.6094 31.7502 31.6094 33.4402V34.8502C31.6094 35.7402 32.3294 36.4502 33.2094 36.4502L33.2194 36.4602ZM68.4994 23.6302V20.4202H71.7094V25.8102L68.4594 23.8102C68.4594 23.7402 68.4994 23.6902 68.4994 23.6202V23.6302Z" fill="white"/>
<path d="M54.0716 52.49C54.9616 52.49 55.6716 51.77 55.6716 50.89V38.06C55.6716 37.17 54.9516 36.46 54.0716 36.46H44.4516C43.5616 36.46 42.8516 37.18 42.8516 38.06V50.89C42.8516 51.78 43.5716 52.49 44.4516 52.49C45.3316 52.49 46.0516 51.77 46.0516 50.89V39.67H52.4616V46.08C51.5716 46.08 50.8616 46.8 50.8616 47.68C50.8616 48.56 51.5816 49.28 52.4616 49.28V50.88C52.4616 51.77 53.1816 52.48 54.0616 52.48L54.0716 52.49Z" fill="white"/>
<path d="M58.8815 49.28H66.9013C67.7913 49.28 68.5013 48.56 68.5013 47.68V38.06C68.5013 37.17 67.7813 36.46 66.9013 36.46H58.8815C57.9915 36.46 57.2812 37.18 57.2812 38.06V47.68C57.2812 48.57 58.0015 49.28 58.8815 49.28ZM60.4813 39.66H65.2913V46.07H60.4813V39.66Z" fill="white"/>
</svg>
