<svg width="100" height="100" viewBox="0 0 100 100" fill="none" xmlns="http://www.w3.org/2000/svg">
<path d="M76.9819 30.6499H73.7719C72.8819 30.6499 72.1719 31.3699 72.1719 32.2499C72.1719 33.1299 72.8919 33.8499 73.7719 33.8499H76.9819C77.8719 33.8499 78.5819 33.1299 78.5819 32.2499C78.5819 31.3699 77.8619 30.6499 76.9819 30.6499Z" fill="white"/>
<path d="M76.9819 37.0601H73.7719C72.8819 37.0601 72.1719 37.7801 72.1719 38.6601C72.1719 39.5401 72.8919 40.2601 73.7719 40.2601H76.9819C77.8719 40.2601 78.5819 39.5401 78.5819 38.6601C78.5819 37.7801 77.8619 37.0601 76.9819 37.0601Z" fill="white"/>
<path d="M22.4594 33.8499H25.6694C26.5594 33.8499 27.2694 33.1299 27.2694 32.2499C27.2694 31.3699 26.5494 30.6499 25.6694 30.6499H22.4594C21.5694 30.6499 20.8594 31.3699 20.8594 32.2499C20.8594 33.1299 21.5794 33.8499 22.4594 33.8499Z" fill="white"/>
<path d="M25.6694 40.2703C26.5594 40.2703 27.2694 39.5503 27.2694 38.6703C27.2694 37.7903 26.5494 37.0703 25.6694 37.0703H22.4594C21.5694 37.0703 20.8594 37.7903 20.8594 38.6703C20.8594 39.5503 21.5794 40.2703 22.4594 40.2703H25.6694Z" fill="white"/>
<path d="M73.3115 79.2199C73.0115 78.9199 72.6015 78.7499 72.1815 78.7499H68.7215L59.7415 27.4399H76.9915C77.7415 27.4399 78.3915 26.9199 78.5615 26.1799C78.7215 25.4399 78.3515 24.6999 77.6715 24.3799L56.8215 14.7599C56.6115 14.6599 56.3815 14.6099 56.1515 14.6099H43.3215C43.0915 14.6099 42.8615 14.6599 42.6515 14.7599L21.8015 24.3799C21.1215 24.6999 20.7415 25.4399 20.9115 26.1799C21.0715 26.9199 21.7215 27.4399 22.4815 27.4399H39.7315L32.1215 70.9199C31.9715 71.7899 32.5515 72.6199 33.4215 72.7799C33.5115 72.7999 33.6115 72.7999 33.7015 72.7999C34.4615 72.7999 35.1415 72.2499 35.2815 71.4699L37.2615 60.1599L59.9015 76.8399C60.1915 77.0499 60.5215 77.1499 60.8515 77.1499C61.3415 77.1499 61.8315 76.9199 62.1415 76.4999C62.6715 75.7899 62.5115 74.7799 61.8015 74.2599L52.4415 67.3599L62.2115 60.1599L65.4615 78.7599H36.9715L46.1015 72.0299C46.8115 71.4999 46.9715 70.4999 46.4415 69.7899C45.9115 69.0799 44.9115 68.9299 44.2015 69.4499L31.5715 78.7599H27.2915C26.8615 78.7599 26.4615 78.9299 26.1615 79.2299L22.9515 82.4399C22.3215 83.0699 22.3215 84.0799 22.9515 84.7099C23.5815 85.3399 24.5915 85.3399 25.2215 84.7099L27.9615 81.9699H71.5315L74.2715 84.7099C74.5815 85.0199 74.9915 85.1799 75.4015 85.1799C75.8115 85.1799 76.2215 85.0199 76.5315 84.7099C77.1615 84.0799 77.1615 83.0699 76.5315 82.4399L73.3215 79.2299L73.3115 79.2199ZM42.7415 41.7799L45.9315 39.1699C46.6215 38.6099 46.7215 37.5999 46.1615 36.9099C45.6015 36.2199 44.5915 36.1199 43.9015 36.6799L40.9315 39.1099L42.5015 30.1399L54.4115 39.8899C54.7115 40.1299 55.0715 40.2499 55.4215 40.2499C55.8815 40.2499 56.3415 40.0499 56.6615 39.6599C57.2215 38.9699 57.1215 37.9599 56.4315 37.3999L52.2515 33.9799L56.9415 30.1399L58.7215 40.3099L49.7115 46.7599L42.7315 41.7699L42.7415 41.7799ZM40.1015 24.2299H29.7615L43.6615 17.8199H55.7815L69.6815 24.2299H59.1715L58.8415 22.3499C58.6915 21.4799 57.8615 20.8999 56.9815 21.0499C56.1115 21.1999 55.5215 22.0299 55.6815 22.9099L55.9115 24.2399H48.1215C47.2315 24.2399 46.5215 24.9599 46.5215 25.8399C46.5215 26.7199 47.2415 27.4399 48.1215 27.4399H55.2115L49.7215 31.9299L43.1315 26.5399L43.7615 22.9099C43.9115 22.0399 43.3315 21.2099 42.4615 21.0499C41.6015 20.8999 40.7615 21.4799 40.6015 22.3499L40.2615 24.2599C40.2015 24.2599 40.1515 24.2299 40.0915 24.2299H40.1015ZM49.7215 65.3599L39.6215 57.9199L45.8415 53.4799C46.5615 52.9599 46.7315 51.9599 46.2115 51.2399C45.6915 50.5199 44.6915 50.3499 43.9715 50.8699L38.1315 55.0399L40.0915 43.8399L56.8015 55.7699C57.0815 55.9699 57.4115 56.0699 57.7315 56.0699C58.2315 56.0699 58.7215 55.8399 59.0415 55.3999C59.5515 54.6799 59.3915 53.6799 58.6715 53.1599L52.4815 48.7399L59.3415 43.8399L61.5815 56.6299L49.7215 65.3699V65.3599Z" fill="white"/>
</svg>
